<svg width="22.000000" height="22.000000" viewBox="0 0 22 22" fill="none" xmlns="http://www.w3.org/2000/svg" xmlns:xlink="http://www.w3.org/1999/xlink">
	<desc>
			Created with Pixso.
	</desc>
	<defs>
		<clipPath id="clip2_61">
			<rect id="shopping-cart" rx="0.000000" width="21.000000" height="21.000000" transform="translate(0.500000 0.500000)" fill="white" fill-opacity="0"/>
		</clipPath>
	</defs>
	<rect id="shopping-cart" rx="0.000000" width="21.000000" height="21.000000" transform="translate(0.500000 0.500000)" fill="#FFFFFF" fill-opacity="0"/>
	<g clip-path="url(#clip2_61)">
		<path id="Vector" d="M8.25 20.16C7.74 20.16 7.33 19.75 7.33 19.25C7.33 18.74 7.74 18.33 8.25 18.33C8.75 18.33 9.16 18.74 9.16 19.25C9.16 19.75 8.75 20.16 8.25 20.16Z" stroke="#2C2D35" stroke-opacity="1.000000" stroke-width="2.000000" stroke-linejoin="round"/>
		<path id="Vector" d="M18.33 20.16C17.82 20.16 17.41 19.75 17.41 19.25C17.41 18.74 17.82 18.33 18.33 18.33C18.83 18.33 19.25 18.74 19.25 19.25C19.25 19.75 18.83 20.16 18.33 20.16Z" stroke="#2C2D35" stroke-opacity="1.000000" stroke-width="2.000000" stroke-linejoin="round"/>
		<path id="Vector" d="M0.91 0.91L4.58 0.91L7.03 13.19C7.12 13.61 7.35 13.99 7.68 14.26C8.02 14.53 8.44 14.67 8.87 14.66L17.78 14.66C18.21 14.67 18.63 14.53 18.96 14.26C19.3 13.99 19.53 13.61 19.61 13.19L21.08 5.5L5.49 5.5" stroke="#2C2D35" stroke-opacity="1.000000" stroke-width="2.000000" stroke-linejoin="round" stroke-linecap="round"/>
	</g>
</svg>
